<svg xmlns="http://www.w3.org/2000/svg" width="18" height="16" fill="none" viewBox="0 0 18 16"><path fill="currentColor" fill-rule="evenodd" d="M2.61 1.613c-.961 0-1.74.779-1.74 1.74v9.57c0 .96.779 1.74 1.74 1.74h9.57c.96 0 1.74-.78 1.74-1.74V6.398h.87v6.525a2.61 2.61 0 0 1-2.61 2.61H2.61A2.61 2.61 0 0 1 0 12.923v-9.57A2.61 2.61 0 0 1 2.61.743h8.7v.87z" clip-rule="evenodd"/><path fill="currentColor" fill-rule="evenodd" d="M17.272.615 7.266 10.62a.435.435 0 0 1-.615 0l-3.48-3.48.615-.615 3.172 3.172L16.656 0z" clip-rule="evenodd"/></svg>