<svg xmlns="http://www.w3.org/2000/svg" width="92" height="28" fill="none" viewBox="0 0 92 28"><path fill="#3f1e1e" d="M2.786 21.846c-.741 0-1.432-.442-1.678-1.14a4 4 0 0 1-.08-.263c-1.268-4.49 1.58-9.094 6.345-10.28a7 7 0 0 1 .29-.068c.955-.19 1.889.389 2.088 1.283.199.897-.414 1.774-1.367 1.961l-.105.027c-2.882.716-4.603 3.502-3.84 6.209q.01.052.027.09c.305.871-.2 1.807-1.123 2.093q-.277.085-.554.085z"/><path fill="#3f1e1e" d="M1.765 10.902c-.33 0-.663-.088-.962-.27-.818-.5-1.049-1.525-.517-2.294.06-.085.119-.164.184-.246 1.42-1.794 3.501-2.967 5.864-3.294 2.362-.33 4.718.228 6.632 1.564.093.067.168.117.243.175.75.588.85 1.631.224 2.336-.626.702-1.737.798-2.487.21a1 1 0 0 0-.078-.055c-2.4-1.672-5.792-1.202-7.569 1.046a1 1 0 0 0-.056.074c-.34.488-.902.754-1.481.754z"/><path fill="#3f1e1e" d="M17.862 10.007h-.044c-.974-.023-1.746-.783-1.721-1.698v-.082c-.106-2.81-2.602-5.01-5.593-4.911h-.102c-.978.082-1.83-.585-1.92-1.494C8.391.91 9.106.103 10.077.02c.1-.009.19-.012.29-.015 4.935-.143 9.084 3.473 9.255 8.097.003.111.006.199.003.293-.025.9-.809 1.616-1.764 1.616z"/><path fill="#3f1e1e" d="M21.017 14.59a1.8 1.8 0 0 1-1.406-.654c-.592-.728-.44-1.769.336-2.324q.04-.03.08-.061c1.096-.88 1.762-2.111 1.874-3.464.112-1.354-.342-2.666-1.282-3.695l-.065-.07a1.59 1.59 0 0 1 .043-2.345c.7-.637 1.82-.617 2.496.041.072.07.134.138.203.21 1.559 1.71 2.309 3.88 2.125 6.116-.187 2.236-1.285 4.27-3.1 5.726a4 4 0 0 1-.236.182c-.32.228-.694.339-1.068.339"/><path fill="#3f1e1e" d="M20.727 19.928a9.5 9.5 0 0 1-1.995-.213c-.946-.225-1.515-1.128-1.273-2.017.243-.886 1.202-1.427 2.148-1.196l.09.018c2.938.535 5.773-1.277 6.337-4.025l.018-.094c.128-.909 1.015-1.546 1.983-1.426s1.646.953 1.519 1.862c-.013.1-.031.19-.053.29-.819 4.01-4.575 6.807-8.77 6.807z"/><path fill="#3f1e1e" d="M20.158 25.415a9.5 9.5 0 0 1-2.664-.383c-2.278-.666-4.146-2.128-5.254-4.11-.046-.085-.093-.166-.137-.257-.401-.833-.009-1.818.878-2.195.887-.38 1.936-.01 2.337.824q.022.043.044.082c.672 1.204 1.802 2.087 3.18 2.49a5.7 5.7 0 0 0 4.121-.35l.087-.044c.837-.468 1.924-.214 2.422.57s.236 1.797-.598 2.268a9.415 9.415 0 0 1-4.42 1.105z"/><path fill="#3f1e1e" d="M12.53 27.917c-.202 0-.41-.032-.613-.102-.096-.035-.187-.07-.283-.108-2.188-.903-3.869-2.552-4.737-4.642a7.87 7.87 0 0 1 .146-6.422c.047-.097.084-.179.131-.263.445-.816 1.51-1.137 2.375-.72.868.418 1.21 1.418.769 2.23-.016.027-.025.053-.041.083a4.77 4.77 0 0 0-.09 3.887c.523 1.266 1.54 2.263 2.86 2.807l.09.038c.915.318 1.382 1.271 1.043 2.13-.265.67-.94 1.085-1.656 1.085zM41.387 12.94h-2.48V9.705h2.48V8.95c0-3.06 2.11-4.893 5.058-4.893 1.117 0 2.14.233 2.853.581l-.806 2.68c-.31-.204-.743-.35-1.273-.35-1.117 0-1.86.699-1.86 1.982v.757h3.04v3.233h-3.04v10.84h-3.972zm9.275-8.598h3.94v19.433h-3.94zM57.546 16.725c0-3.99 2.979-7.373 7.912-7.373s7.942 3.38 7.942 7.373-2.978 7.401-7.942 7.401-7.912-3.38-7.912-7.401m11.758 0c0-2.187-1.397-4.078-3.846-4.078-2.45 0-3.816 1.894-3.816 4.078 0 2.183 1.366 4.107 3.816 4.107s3.846-1.895 3.846-4.107M76.313 9.703h3.94v1.924c1.055-1.255 2.916-2.245 4.777-2.245v3.613a5.5 5.5 0 0 0-1.086-.088c-1.304 0-3.04.67-3.69 1.573v9.295h-3.941zM87.075 5.42c0-1.224 1.086-2.215 2.359-2.215s2.36.99 2.36 2.216c0 1.225-1.056 2.215-2.36 2.215s-2.359-.99-2.359-2.215m.404 4.283h3.94v14.072h-3.94z"/></svg>